<svg version="1.1" viewBox="0.0 0.0 960.0 540.0" fill="none" stroke="none" stroke-linecap="square" stroke-miterlimit="10" xmlns:xlink="http://www.w3.org/1999/xlink" xmlns="http://www.w3.org/2000/svg"><clipPath id="p.0"><path d="m0 0l960.0 0l0 540.0l-960.0 0l0 -540.0z" clip-rule="nonzero"/></clipPath><g clip-path="url(#p.0)"><path fill="#ffffff" d="m0 0l960.0 0l0 540.0l-960.0 0z" fill-rule="evenodd"/><path fill="#000000" fill-opacity="0.0" d="m0 0l960.0 0l0 540.0l-960.0 0z" fill-rule="evenodd"/><path fill="#000000" d="m236.34546 241.68262q-13.21875 0 -25.34375 -3.53125q-12.109375 -3.546875 -19.5 -9.21875l8.65625 -19.1875q7.078125 5.03125 16.75 8.265625q9.671875 3.21875 19.59375 3.21875q7.546875 0 12.1875 -1.484375q4.640625 -1.5 6.84375 -4.171875q2.203125 -2.6875 2.203125 -6.140625q0 -4.40625 -3.46875 -7.0q-3.453125 -2.609375 -9.125 -4.25q-5.65625 -1.65625 -12.5 -3.140625q-6.84375 -1.5 -13.6875 -3.703125q-6.84375 -2.203125 -12.515625 -5.65625q-5.65625 -3.46875 -9.203125 -9.125q-3.53125 -5.671875 -3.53125 -14.484375q0 -9.4375 5.109375 -17.21875q5.109375 -7.796875 15.40625 -12.4375q10.3125 -4.640625 25.890625 -4.640625q10.390625 0 20.453125 2.4375q10.078125 2.4375 17.78125 7.3125l-7.859375 19.359375q-7.71875 -4.40625 -15.4375 -6.53125q-7.703125 -2.125 -15.09375 -2.125q-7.390625 0 -12.109375 1.734375q-4.71875 1.71875 -6.765625 4.484375q-2.046875 2.75 -2.046875 6.359375q0 4.25 3.453125 6.859375q3.46875 2.59375 9.125 4.171875q5.671875 1.5625 12.515625 3.140625q6.84375 1.5625 13.6875 3.609375q6.84375 2.046875 12.5 5.515625q5.671875 3.453125 9.203125 9.125q3.546875 5.65625 3.546875 14.3125q0 9.28125 -5.1875 17.0q-5.1875 7.703125 -15.5 12.421875q-10.3125 4.71875 -26.03125 4.71875zm103.35974 -0.625q-13.6875 0 -24.390625 -5.578125q-10.6875 -5.59375 -16.75 -15.5q-6.0625 -9.921875 -6.0625 -22.515625q0 -12.734375 6.0625 -22.5625q6.0625 -9.84375 16.75 -15.421875q10.703125 -5.59375 24.390625 -5.59375q13.375 0 23.28125 5.59375q9.90625 5.578125 14.640625 15.96875l-19.046875 10.21875q-3.296875 -5.96875 -8.265625 -8.796875q-4.953125 -2.84375 -10.765625 -2.84375q-6.296875 0 -11.328125 2.84375q-5.03125 2.828125 -7.953125 8.015625q-2.90625 5.1875 -2.90625 12.578125q0 7.40625 2.90625 12.59375q2.921875 5.1875 7.953125 8.03125q5.03125 2.828125 11.328125 2.828125q5.8125 0 10.765625 -2.75q4.96875 -2.765625 8.265625 -8.890625l19.046875 10.375q-4.734375 10.234375 -14.640625 15.828125q-9.90625 5.578125 -23.28125 5.578125zm103.99655 -1.265625l0 -16.515625l-1.578125 -3.625l0 -29.578125q0 -7.859375 -4.796875 -12.265625q-4.796875 -4.40625 -14.71875 -4.40625q-6.75 0 -13.28125 2.125q-6.53125 2.125 -11.09375 5.734375l-8.8125 -17.140625q6.921875 -4.875 16.671875 -7.546875q9.765625 -2.6875 19.828125 -2.6875q19.34375 0 30.046875 9.125q10.703125 9.125 10.703125 28.484375l0 48.296875l-22.96875 0zm-25.8125 1.265625q-9.90625 0 -16.984375 -3.375q-7.078125 -3.390625 -10.859375 -9.21875q-3.765625 -5.828125 -3.765625 -13.0625q0 -7.546875 3.6875 -13.203125q3.703125 -5.671875 11.71875 -8.890625q8.03125 -3.234375 20.921875 -3.234375l22.5 0l0 14.3125l-19.8125 0q-8.65625 0 -11.890625 2.84375q-3.21875 2.828125 -3.21875 7.078125q0 4.71875 3.6875 7.46875q3.703125 2.75 10.15625 2.75q6.140625 0 11.015625 -2.90625q4.875 -2.90625 7.078125 -8.578125l3.78125 11.328125q-2.671875 8.1875 -9.765625 12.4375q-7.078125 4.25 -18.25 4.25zm70.96207 -1.265625l0 -116.734375l24.546875 0l0 116.734375l-24.546875 0zm89.355774 1.265625q-14.46875 0 -25.40625 -5.65625q-10.9375 -5.671875 -16.921875 -15.5q-5.96875 -9.84375 -5.96875 -22.4375q0 -12.734375 5.890625 -22.5625q5.90625 -9.84375 16.125 -15.421875q10.234375 -5.59375 23.140625 -5.59375q12.421875 0 22.40625 5.28125q10.0 5.265625 15.8125 15.109375q5.828125 9.828125 5.828125 23.515625q0 1.40625 -0.15625 3.21875q-0.15625 1.8125 -0.3125 3.375l-68.75 0l0 -14.3125l55.84375 0l-9.4375 4.25q0 -6.609375 -2.671875 -11.484375q-2.671875 -4.875 -7.390625 -7.625q-4.71875 -2.765625 -11.015625 -2.765625q-6.296875 0 -11.09375 2.765625q-4.796875 2.75 -7.46875 7.703125q-2.671875 4.953125 -2.671875 11.71875l0 3.78125q0 6.921875 3.0625 12.203125q3.0625 5.265625 8.640625 8.015625q5.59375 2.75 13.15625 2.75q6.765625 0 11.875 -2.046875q5.109375 -2.046875 9.359375 -6.140625l13.0625 14.171875q-5.828125 6.59375 -14.640625 10.140625q-8.8125 3.546875 -20.296875 3.546875z" fill-rule="nonzero"/><path fill="#000000" d="m289.2057 390.832l0 -110.125l47.03125 0q22.96875 0 35.71875 10.625q12.75 10.609375 12.75 29.328125q0 12.28125 -5.828125 21.171875q-5.8125 8.875 -16.515625 13.609375q-10.703125 4.71875 -25.484375 4.71875l-33.515625 0l11.328125 -11.171875l0 41.84375l-25.484375 0zm70.0 0l-27.53125 -39.96875l27.21875 0l27.859375 39.96875l-27.546875 0zm-44.515625 -39.015625l-11.328125 -11.953125l32.09375 0q11.796875 0 17.609375 -5.109375q5.828125 -5.125 5.828125 -14.09375q0 -9.125 -5.828125 -14.15625q-5.8125 -5.03125 -17.609375 -5.03125l-32.09375 0l11.328125 -12.125l0 62.46875zm130.41742 40.28125q-14.46875 0 -25.40625 -5.65625q-10.9375 -5.671875 -16.921875 -15.5q-5.96875 -9.84375 -5.96875 -22.4375q0 -12.734375 5.890625 -22.5625q5.90625 -9.84375 16.125 -15.421875q10.234375 -5.59375 23.140625 -5.59375q12.421875 0 22.40625 5.28125q10.0 5.265625 15.8125 15.109375q5.828125 9.828125 5.828125 23.515625q0 1.40625 -0.15625 3.21875q-0.15625 1.8125 -0.3125 3.375l-68.75 0l0 -14.3125l55.84375 0l-9.4375 4.25q0 -6.609375 -2.671875 -11.484375q-2.671875 -4.875 -7.390625 -7.625q-4.71875 -2.765625 -11.015625 -2.765625q-6.296875 0 -11.09375 2.765625q-4.796875 2.75 -7.46875 7.703125q-2.671875 4.953125 -2.671875 11.71875l0 3.78125q0 6.921875 3.0625 12.203125q3.0625 5.265625 8.640625 8.015625q5.59375 2.75 13.15625 2.75q6.765625 0 11.875 -2.046875q5.109375 -2.046875 9.359375 -6.140625l13.0625 14.171875q-5.828125 6.59375 -14.640625 10.140625q-8.8125 3.546875 -20.296875 3.546875zm106.83594 -1.265625l0 -16.515625l-1.578125 -3.625l0 -29.578125q0 -7.859375 -4.796875 -12.265625q-4.796875 -4.40625 -14.71875 -4.40625q-6.75 0 -13.28125 2.125q-6.53125 2.125 -11.09375 5.734375l-8.8125 -17.140625q6.921875 -4.875 16.671875 -7.546875q9.765625 -2.6875 19.828125 -2.6875q19.34375 0 30.046875 9.125q10.703125 9.125 10.703125 28.484375l0 48.296875l-22.96875 0zm-25.8125 1.265625q-9.90625 0 -16.984375 -3.375q-7.078125 -3.390625 -10.859375 -9.21875q-3.765625 -5.828125 -3.765625 -13.0625q0 -7.546875 3.6875 -13.203125q3.703125 -5.671875 11.71875 -8.890625q8.03125 -3.234375 20.921875 -3.234375l22.5 0l0 14.3125l-19.8125 0q-8.65625 0 -11.890625 2.84375q-3.21875 2.828125 -3.21875 7.078125q0 4.71875 3.6875 7.46875q3.703125 2.75 10.15625 2.75q6.140625 0 11.015625 -2.90625q4.875 -2.90625 7.078125 -8.578125l3.78125 11.328125q-2.671875 8.1875 -9.765625 12.4375q-7.078125 4.25 -18.25 4.25zm70.9621 -1.265625l0 -116.734375l24.546875 0l0 116.734375l-24.546875 0zm47.355774 0l0 -84.640625l23.4375 0l0 23.125l-4.40625 -6.765625q4.40625 -8.65625 12.5 -13.140625q8.109375 -4.484375 18.5 -4.484375q11.640625 0 20.375 5.90625q8.734375 5.90625 11.5625 18.015625l-8.65625 -2.359375q4.25 -9.921875 13.609375 -15.734375q9.359375 -5.828125 21.484375 -5.828125q10.0625 0 17.84375 4.015625q7.796875 4.015625 12.28125 12.28125q4.484375 8.25 4.484375 21.15625l0 48.453125l-24.546875 0l0 -44.6875q0 -10.21875 -4.25 -15.09375q-4.25 -4.875 -11.953125 -4.875q-5.359375 0 -9.609375 2.4375q-4.234375 2.4375 -6.59375 7.3125q-2.359375 4.875 -2.359375 12.421875l0 42.484375l-24.546875 0l0 -44.6875q0 -10.21875 -4.171875 -15.09375q-4.171875 -4.875 -11.875 -4.875q-5.34375 0 -9.59375 2.4375q-4.25 2.4375 -6.609375 7.3125q-2.359375 4.875 -2.359375 12.421875l0 42.484375l-24.546875 0z" fill-rule="nonzero"/></g></svg>